<svg width="116" height="82" viewBox="0 0 116 82" fill="none" xmlns="http://www.w3.org/2000/svg">
<path d="M109.042 0.858734C110.514 0.832429 111.84 1.60704 113.021 3.18295C114.201 4.75905 115.137 7.00549 115.829 9.92123C113.778 9.75853 112.113 9.65518 110.832 9.61166C109.615 9.56701 108.525 9.55337 107.565 9.57065C104.302 9.62939 101.298 9.8506 98.5527 10.2328C96.6471 10.4562 94.8066 10.7131 93.0312 11.0013C91.2191 14.4429 89.6154 18.5409 88.2236 23.2962C87.5619 25.5571 86.9448 27.8662 86.3662 30.222L89.1895 29.5804C90.4856 29.346 91.7439 29.1311 92.9648 28.9378C95.2549 28.5826 97.1678 28.3698 98.7021 28.3001C100.748 28.2073 102.372 28.6996 103.574 29.7757C104.84 30.8489 105.519 32.3881 105.61 34.3939C105.633 34.8954 105.624 35.4303 105.586 35.9974C105.545 36.5015 105.437 36.9458 105.263 37.3304C104.426 37.2428 103.494 37.1914 102.469 37.1751C101.44 37.0962 100.223 37.0879 98.8164 37.1517C95.9394 37.2823 93.073 37.6651 90.2188 38.2972C88.2013 38.744 86.2447 39.1381 84.3506 39.4847C84.33 39.5924 84.3085 39.7 84.2881 39.808C83.2641 45.5678 82.4637 51.2957 81.8877 56.9915C81.3757 62.6235 81.1201 67.6805 81.1201 72.1605V76.7679C81.1201 78.3679 81.1835 80.0321 81.3115 81.7601C80.4156 81.7601 79.3276 81.6323 78.0479 81.3763C76.832 81.1843 75.6162 80.896 74.4004 80.5121C73.2486 80.1281 72.1923 79.6802 71.2324 79.1683C70.2724 78.7203 69.5998 78.2082 69.2158 77.6322C69.1518 76.7362 69.1201 75.808 69.1201 74.848V72.0638C69.1201 64.8959 69.6323 57.4079 70.6562 49.5999C71.0814 46.5486 71.6098 43.3995 72.2402 40.1527C72.0659 40.1271 71.8919 40.0994 71.7188 40.0667C69.0131 39.3083 67.1953 37.8564 66.2686 35.7093C66.5741 35.3814 67.455 34.9959 68.9082 34.5531C70.0208 34.1653 71.3206 33.7497 72.8076 33.308L73.7363 33.096C74.3956 30.22 75.1282 27.2733 75.9355 24.2562C76.1915 23.3602 76.4798 22.1438 76.7998 20.6078C77.1198 19.0718 77.4398 17.4719 77.7598 15.808C75.9679 16.7039 73.92 18.4318 71.6162 20.9915C69.3762 23.4875 67.0721 26.5603 64.7041 30.2083C62.4001 33.7923 60.096 37.7924 57.792 42.2083C55.552 46.6243 53.5044 51.1366 51.6484 55.7445C49.8565 60.2884 48.32 64.8324 47.04 69.3763C45.8241 73.8562 45.088 77.9842 44.832 81.7601C44.7041 81.8241 44.5762 81.8558 44.4482 81.8558H43.6797C42.7838 81.8558 41.7276 81.6963 40.5117 81.3763C39.3598 81.1203 38.2076 80.7676 37.0557 80.3197C35.9678 79.9357 35.0077 79.4879 34.1758 78.9759C33.4081 78.4641 32.9284 78.0161 32.7363 77.6322C32.6723 76.7362 32.6396 75.808 32.6396 74.848V72.0638C32.6397 64.8959 33.1518 57.4079 34.1758 49.5999C35.2638 41.792 37.0241 33.3441 39.4561 24.2562C39.7121 23.3602 39.9676 22.2398 40.2236 20.8958C40.5436 19.4879 40.8636 17.984 41.1836 16.3841C39.6477 17.6001 37.8237 19.5519 35.7119 22.2396C33.6 24.8635 31.3601 27.9999 28.9922 31.6478C26.6882 35.2318 24.3524 39.2001 21.9844 43.5521C19.6804 47.8401 17.5684 52.2244 15.6484 56.7044C13.7285 61.1203 12.0642 65.504 10.6562 69.8558C9.31225 74.2078 8.48016 78.2405 8.16016 81.9525C5.08816 81.0565 2.94354 80.16 1.72754 79.264C0.575829 78.3681 9.62586e-05 77.2801 0 76.0003C0 74.8483 0.351664 73.2159 1.05566 71.1039C1.75966 68.9919 2.75224 66.4956 4.03223 63.6156C5.31219 60.7357 6.88043 57.5358 8.73633 54.016C10.5922 50.4321 12.64 46.5922 14.8799 42.4964C17.4399 37.8244 19.9362 33.4401 22.3682 29.3441C24.8641 25.2482 27.2961 21.5363 29.6641 18.2083C32.0321 14.8803 34.3362 11.9997 36.5762 9.56772C38.8799 7.13599 41.1518 5.28029 43.3916 4.00034C44.2876 4.00034 45.4723 4.22421 46.9443 4.67221C48.4802 5.12019 49.9525 5.66409 51.3604 6.30405C52.8322 6.944 54.1123 7.61573 55.2002 8.31967C56.3522 8.95967 56.9921 9.50448 57.1201 9.95248C56.2242 11.7445 55.1681 14.4322 53.9521 18.016C52.7361 21.6 51.488 25.6643 50.208 30.2083C48.992 34.7523 47.8082 39.5846 46.6562 44.7044C45.5683 49.7603 44.7044 54.6243 44.0645 59.2962C45.5365 55.7762 47.2323 52.1279 49.1523 48.3519C51.1363 44.512 53.2156 40.7357 55.3916 37.0238C57.5675 33.2479 59.7757 29.6003 62.0156 26.0804C64.3196 22.5604 66.5603 19.3598 68.7363 16.4798C69.6794 15.2039 70.5926 14.0002 71.4756 12.8685C70.7106 12.5945 70.015 12.2244 69.3906 11.7552C67.8978 10.5842 67.1335 9.03399 67.0986 7.10483C67.0891 6.57256 67.142 5.93859 67.2568 5.20444C67.4356 4.46928 67.6482 3.83303 67.8945 3.29623C69.1138 3.47395 70.3002 3.58635 71.4531 3.63217C72.6701 3.67682 74.2387 3.68136 76.1582 3.64682C80.1895 3.57427 83.9637 3.40586 87.4795 3.14291C90.9938 2.81345 94.1563 2.48998 96.9668 2.17319C99.8415 1.85522 102.302 1.5786 104.346 1.34213C106.388 1.03917 107.954 0.878312 109.042 0.858734Z" fill="url(#paint0_linear_3_64)"/>
<defs>
<linearGradient id="paint0_linear_3_64" x1="57.9146" y1="0.857758" x2="57.9146" y2="81.9522" gradientUnits="userSpaceOnUse">
<stop stop-color="#D9D9D9"/>
<stop offset="1" stop-color="#737373"/>
</linearGradient>
</defs>
</svg>
