<svg width="438" height="300" viewBox="0 0 438 300" fill="none" xmlns="http://www.w3.org/2000/svg">
<rect x="337" y="50" width="101" height="250" rx="50.5"/>
<path fill-rule="evenodd" clip-rule="evenodd" d="M269.5 0C213.443 0 168 45.4431 168 101.5V105.5V134V249.5C168 277.39 190.61 300 218.5 300C246.39 300 269 277.39 269 249.5V134V121.5C269 77.1932 297.389 39.517 336.969 25.6691C319.036 9.70156 295.401 0 269.5 0Z" />
<path fill-rule="evenodd" clip-rule="evenodd" d="M101.5 0C45.4431 0 0 45.4431 0 101.5V142.5V184V249.5C0 277.39 22.6096 300 50.5 300C78.3904 300 101 277.39 101 249.5V184V142.5V121.5C101 77.1932 129.389 39.517 168.969 25.6691C151.036 9.70156 127.401 0 101.5 0Z" fill="#004DFF"/>
</svg>
