<?xml version="1.0" encoding="UTF-8"?>
<svg id="Layer_2" data-name="Layer 2" xmlns="http://www.w3.org/2000/svg" viewBox="0 0 1573.04 967.93">
  <defs>
    <style>
      .cls-1 {
        fill: #ddd;
      }
    </style>
  </defs>
  <g id="Layer_1-2" data-name="Layer 1">
    <path class="cls-1" d="m831.8,6.14l718.32,199.41c35.06,9.73,28.02,61.38-8.36,61.38H31.68c-36.39,0-43.42-51.65-8.36-61.38L741.64,6.14c29.5-8.19,60.66-8.19,90.16,0Z"/>
    <path class="cls-1" d="m1523.5,311.93h-667.63c-25.98,0-47.04,19.54-47.04,43.64v568.64c0,37.98,48.69,57.83,78.85,32.14l220.5-187.8c7.15-6.09,2.84-17.78-6.55-17.78h-81.56c-14.52,0-26.29-11.77-26.29-26.29v-.93c0-14.52,11.77-26.29,26.29-26.29h164c5.03,0,9.9-1.79,13.73-5.05l105.98-90.26c7.28-6.2,2.9-18.11-6.67-18.11h-279.14c-14.52,0-26.29-11.77-26.29-26.29v-.93c0-14.52,11.77-26.29,26.29-26.29h362.09c5.03,0,9.9-1.79,13.73-5.05l161.52-137.57c31.59-26.9,11.07-75.78-31.81-75.78Z"/>
    <path class="cls-1" d="m714.76,311.93H47.13c-42.88,0-63.4,48.88-31.81,75.78l220.71,187.98c6.96,5.93,17.67.98,17.67-8.16v-46.34c0-15.93,12.91-28.84,28.84-28.84h0c15.93,0,28.84,12.91,28.84,28.84v107.37c0,7.17,3.15,13.99,8.61,18.64l96.51,82.2c6.75,5.75,17.14.95,17.14-7.92v-202.04c0-15.93,12.91-28.84,28.84-28.84h0c15.93,0,28.84,12.91,28.84,28.84v262.44c0,7.13,3.13,13.91,8.56,18.53l183.08,155.94c30.16,25.69,78.85,5.84,78.85-32.14V355.56c0-24.1-21.06-43.64-47.04-43.64Z"/>
  </g>
</svg>