<svg xmlns="http://www.w3.org/2000/svg" xmlns:xlink="http://www.w3.org/1999/xlink" version="1.1" x="0px" y="0px" viewBox="0 0 100 100" style="enable-background:new 0 0 100 100;" xml:space="preserve"><g><path d="M97.7,44.8l-45.5-37c-1.3-1-3.1-1-4.4,0l-45.5,37c-1.1,0.9-1.6,2.5-1.1,3.9C1.7,50.1,3,51,4.5,51h12.8v38.5   c0,1.9,1.6,3.5,3.5,3.5H37c1.9,0,3.5-1.6,3.5-3.5V68h19v21.5c0,1.9,1.6,3.5,3.5,3.5h16.2c1.9,0,3.5-1.6,3.5-3.5V51h12.8   c1.5,0,2.8-0.9,3.3-2.3C99.3,47.3,98.9,45.7,97.7,44.8z"/></g></svg>