<svg xmlns="http://www.w3.org/2000/svg" viewBox="0 0 100 100" x="0px" y="0px">
    <path d="M26.72,33.66H13.44A39.7,39.7,0,0,0,10,47.89H25.05A75.7,75.7,0,0,1,26.72,33.66Z" />
    <path d="M47.89,33.66H31.12a70.09,70.09,0,0,0-1.86,14.23H47.89Z" />
    <path d="M31.12,66.34H47.89V52.11H29.26A70.09,70.09,0,0,0,31.12,66.34Z" />
    <path d="M47.89,29.44V10.16C41.36,11.5,35.61,19,32.28,29.44Z" />
    <path d="M47.89,70.56H32.28C35.61,81,41.36,88.5,47.89,89.84Z" />
    <path d="M68.88,33.66H52.11V47.89H70.74A70.09,70.09,0,0,0,68.88,33.66Z" />
    <path d="M26.72,66.34a75.7,75.7,0,0,1-1.67-14.23H10a39.7,39.7,0,0,0,3.44,14.23Z" />
    <path d="M52.11,10.16V29.44H67.72C64.39,19,58.64,11.5,52.11,10.16Z" />
    <path d="M75,52.11a75.7,75.7,0,0,1-1.67,14.23H86.56A39.7,39.7,0,0,0,90,52.11Z" />
    <path d="M15.64,70.56a40.22,40.22,0,0,0,21.2,17.26c-3.85-4.15-7-10.11-9.05-17.26Z" />
    <path d="M72.21,70.56c-2.07,7.15-5.2,13.11-9,17.26a40.22,40.22,0,0,0,21.2-17.26Z" />
    <path d="M36.84,12.18a40.22,40.22,0,0,0-21.2,17.26H27.79C29.86,22.29,33,16.33,36.84,12.18Z" />
    <path d="M84.36,29.44a40.22,40.22,0,0,0-21.2-17.26c3.85,4.15,7,10.11,9,17.26Z" />
    <path d="M70.74,52.11H52.11V66.34H68.88A70.09,70.09,0,0,0,70.74,52.11Z" />
    <path d="M67.72,70.56H52.11V89.84C58.64,88.5,64.39,81,67.72,70.56Z" />
    <path d="M75,47.89H90a39.7,39.7,0,0,0-3.44-14.23H73.28A75.7,75.7,0,0,1,75,47.89Z" />
</svg>