<svg xmlns:dc="http://purl.org/dc/elements/1.1/" viewBox="0 0 100 100">
    <g transform="translate(0,-952.36218)">
        <path
            d="m 16,976.36217 c -0.78597,0 -1.53205,0.1651 -2.21875,0.4375 l 33.9375,29.65633 c 1.46699,1.2816 3.02954,1.2825 4.5,0 l 34,-29.65633 c -0.6867,-0.2724 -1.43278,-0.4375 -2.21875,-0.4375 l -68,0 z m -5.9375,5.1562 C 10.02467,981.79177 10,982.07807 10,982.36217 l 0,40.00003 c 0,3.3239 2.67606,6 6,6 l 68,0 c 3.32394,0 6,-2.6761 6,-6 l 0,-40.00003 c 0,-0.2841 -0.0247,-0.5704 -0.0625,-0.8438 l -33.78125,29.46883 c -3.52452,3.0741 -8.85071,3.079 -12.375,0 L 10.0625,981.51837 z" />
    </g>
</svg>