<svg xmlns="http://www.w3.org/2000/svg" version="1.1" viewBox="0 0 110.0 110.0">
    <path
        d="m96.469 99h-92.934c-1.2695 0-2.2969-1.0273-2.2969-2.2969 0-9.9023 3.0273-18.098 8.0234-24.578 5.5625-7.2109 13.551-12.234 22.488-15.074 0.78125-0.24609 1.5977-0.054687 2.1797 0.44531l0.003906-0.003906c2.0234 1.7344 4.4922 3.1367 7.2656 4.1016 2.6797 0.93359 5.6562 1.4492 8.8008 1.4492 3.1484 0 6.125-0.51562 8.8008-1.4492 2.7734-0.96484 5.2422-2.3672 7.2656-4.1016 0.66406-0.56641 1.5586-0.69141 2.3203-0.39453 8.8828 2.8516 16.816 7.8555 22.348 15.031 5 6.4766 8.0234 14.672 8.0234 24.578 0 1.2695-1.0273 2.2969-2.2969 2.2969zm-27.809-52.949c-4.7773 4.7773-11.375 7.7305-18.66 7.7305s-13.883-2.9531-18.66-7.7305c-4.7773-4.7773-7.7266-11.375-7.7266-18.66s2.9531-13.883 7.7266-18.66c4.7773-4.7773 11.375-7.7305 18.66-7.7305s13.883 2.9531 18.66 7.7305c4.7773 4.7773 7.7305 11.375 7.7305 18.66s-2.9531 13.883-7.7305 18.66z" />
</svg>