<svg id="visual" viewBox="0 0 1920 1080" preserveAspectRatio="none" xmlns="http://www.w3.org/2000/svg" xmlns:xlink="http://www.w3.org/1999/xlink" version="1.1"><path d="M0 290L80 246.2C160 202.3 320 114.7 480 226.7C640 338.7 800 650.3 960 706.5C1120 762.7 1280 563.3 1440 516.8C1600 470.3 1760 576.7 1840 629.8L1920 683L1920 1081L1840 1081C1760 1081 1600 1081 1440 1081C1280 1081 1120 1081 960 1081C800 1081 640 1081 480 1081C320 1081 160 1081 80 1081L0 1081Z" fill="#e7efff" stroke-linecap="round" stroke-linejoin="miter"></path></svg>