          <svg
            id="visual"
            viewBox="0 0 1920 1080"
            preserveAspectRatio="none"
            xmlns="http://www.w3.org/2000/svg"
            xmlns:xlink="http://www.w3.org/1999/xlink"
            version="1.1"
          >      
            <path
              d="M0 487L53.3 488.8C106.7 490.7 213.3 494.3 320 519.5C426.7 544.7 533.3 591.3 640 623.7C746.7 656 853.3 674 960 695.7C1066.7 717.3 1173.3 742.7 1280 704.8C1386.7 667 1493.3 566 1600 531.8C1706.7 497.7 1813.3 530.3 1866.7 546.7L1920 563L1920 129L1866.7 168.5C1813.3 208 1706.7 287 1600 303.2C1493.3 319.3 1386.7 272.7 1280 251.2C1173.3 229.7 1066.7 233.3 960 244.2C853.3 255 746.7 273 640 258.5C533.3 244 426.7 197 320 179C213.3 161 106.7 172 53.3 177.5L0 183Z"
              fill="#e7efff"
              fill-opacity="1"
            ></path>
            <path
              d="M0 692L53.3 670.5C106.7 649 213.3 606 320 607.8C426.7 609.7 533.3 656.3 640 685C746.7 713.7 853.3 724.3 960 742.3C1066.7 760.3 1173.3 785.7 1280 773.2C1386.7 760.7 1493.3 710.3 1600 710.3C1706.7 710.3 1813.3 760.7 1866.7 785.8L1920 811L1920 561L1866.7 544.7C1813.3 528.3 1706.7 495.7 1600 529.8C1493.3 564 1386.7 665 1280 702.8C1173.3 740.7 1066.7 715.3 960 693.7C853.3 672 746.7 654 640 621.7C533.3 589.3 426.7 542.7 320 517.5C213.3 492.3 106.7 488.7 53.3 486.8L0 485Z"
              fill="#e0e3f7"
              fill-opacity="0.7"
            ></path>
            <path
              d="M0 779L53.3 768.2C106.7 757.3 213.3 735.7 320 726.7C426.7 717.7 533.3 721.3 640 748.3C746.7 775.3 853.3 825.7 960 858C1066.7 890.3 1173.3 904.7 1280 888.5C1386.7 872.3 1493.3 825.7 1600 825.7C1706.7 825.7 1813.3 872.3 1866.7 895.7L1920 919L1920 809L1866.7 783.8C1813.3 758.7 1706.7 708.3 1600 708.3C1493.3 708.3 1386.7 758.7 1280 771.2C1173.3 783.7 1066.7 758.3 960 740.3C853.3 722.3 746.7 711.7 640 683C533.3 654.3 426.7 607.7 320 605.8C213.3 604 106.7 647 53.3 668.5L0 690Z"
              fill="#d8dcf5"
              fill-opacity="0.5"
            ></path>
            <path
              d="M0 876L53.3 872.3C106.7 868.7 213.3 861.3 320 841.5C426.7 821.7 533.3 789.3 640 800.2C746.7 811 853.3 865 960 906.3C1066.7 947.7 1173.3 976.3 1280 958.3C1386.7 940.3 1493.3 875.7 1600 868.5C1706.7 861.3 1813.3 911.7 1866.7 936.8L1920 962L1920 917L1866.7 893.7C1813.3 870.3 1706.7 823.7 1600 823.7C1493.3 823.7 1386.7 870.3 1280 886.5C1173.3 902.7 1066.7 888.3 960 856C853.3 823.7 746.7 773.3 640 746.3C533.3 719.3 426.7 715.7 320 724.7C213.3 733.7 106.7 755.3 53.3 766.2L0 777Z"
              fill="#d0d6f3"
              fill-opacity="0.3"
            ></path>
            <path
              d="M0 984L53.3 978.5C106.7 973 213.3 962 320 951.2C426.7 940.3 533.3 929.7 640 946C746.7 962.3 853.3 1005.7 960 1027.3C1066.7 1049 1173.3 1049 1280 1034.5C1386.7 1020 1493.3 991 1600 987.3C1706.7 983.7 1813.3 1005.3 1866.7 1016.2L1920 1027L1920 960L1866.7 934.8C1813.3 909.7 1706.7 859.3 1600 866.5C1493.3 873.7 1386.7 938.3 1280 956.3C1173.3 974.3 1066.7 945.7 960 904.3C853.3 863 746.7 809 640 798.2C533.3 787.3 426.7 819.7 320 839.5C213.3 859.3 106.7 866.7 53.3 870.3L0 874Z"
              fill="#c4cbf0"
              fill-opacity="0.1"
            ></path>
  
          </svg>
