<svg
              id="visual"
              viewBox="0 0 1920 1080"
              preserveAspectRatio="none"
              xmlns="http://www.w3.org/2000/svg"
              xmlns:xlink="http://www.w3.org/1999/xlink"
              version="1.1"
            >
              <path
                d="M0 268L45.7 249.8C91.3 231.7 182.7 195.3 274.2 186.5C365.7 177.7 457.3 196.3 548.8 180.8C640.3 165.3 731.7 115.7 823 131.2C914.3 146.7 1005.7 227.3 1097 229C1188.3 230.7 1279.7 153.3 1371.2 137.2C1462.7 121 1554.3 166 1645.8 177.5C1737.3 189 1828.7 167 1874.3 156L1920 145L1920 1081L1874.3 1081C1828.7 1081 1737.3 1081 1645.8 1081C1554.3 1081 1462.7 1081 1371.2 1081C1279.7 1081 1188.3 1081 1097 1081C1005.7 1081 914.3 1081 823 1081C731.7 1081 640.3 1081 548.8 1081C457.3 1081 365.7 1081 274.2 1081C182.7 1081 91.3 1081 45.7 1081L0 1081Z"
                fill="#c4cbf0"
                fill-opacity="0.1"
              ></path>
              <path
                d="M0 415L45.7 394C91.3 373 182.7 331 274.2 310.2C365.7 289.3 457.3 289.7 548.8 305.2C640.3 320.7 731.7 351.3 823 356.2C914.3 361 1005.7 340 1097 352C1188.3 364 1279.7 409 1371.2 429.7C1462.7 450.3 1554.3 446.7 1645.8 434C1737.3 421.3 1828.7 399.7 1874.3 388.8L1920 378L1920 1081L1874.3 1081C1828.7 1081 1737.3 1081 1645.8 1081C1554.3 1081 1462.7 1081 1371.2 1081C1279.7 1081 1188.3 1081 1097 1081C1005.7 1081 914.3 1081 823 1081C731.7 1081 640.3 1081 548.8 1081C457.3 1081 365.7 1081 274.2 1081C182.7 1081 91.3 1081 45.7 1081L0 1081Z"
                fill="#d0d6f3"
                fill-opacity="0.3"
              ></path>
              <path
                d="M0 503L45.7 485.2C91.3 467.3 182.7 431.7 274.2 415.7C365.7 399.7 457.3 403.3 548.8 423.7C640.3 444 731.7 481 823 523C914.3 565 1005.7 612 1097 625.7C1188.3 639.3 1279.7 619.7 1371.2 579.7C1462.7 539.7 1554.3 479.3 1645.8 464.3C1737.3 449.3 1828.7 479.7 1874.3 494.8L1920 510L1920 1081L1874.3 1081C1828.7 1081 1737.3 1081 1645.8 1081C1554.3 1081 1462.7 1081 1371.2 1081C1279.7 1081 1188.3 1081 1097 1081C1005.7 1081 914.3 1081 823 1081C731.7 1081 640.3 1081 548.8 1081C457.3 1081 365.7 1081 274.2 1081C182.7 1081 91.3 1081 45.7 1081L0 1081Z"
                fill="#d8dcf5"
                fill-opacity="0.5"
              ></path>
              <path
                d="M0 727L45.7 718C91.3 709 182.7 691 274.2 713.2C365.7 735.3 457.3 797.7 548.8 817.7C640.3 837.7 731.7 815.3 823 811.5C914.3 807.7 1005.7 822.3 1097 795.2C1188.3 768 1279.7 699 1371.2 682.5C1462.7 666 1554.3 702 1645.8 696.5C1737.3 691 1828.7 644 1874.3 620.5L1920 597L1920 1081L1874.3 1081C1828.7 1081 1737.3 1081 1645.8 1081C1554.3 1081 1462.7 1081 1371.2 1081C1279.7 1081 1188.3 1081 1097 1081C1005.7 1081 914.3 1081 823 1081C731.7 1081 640.3 1081 548.8 1081C457.3 1081 365.7 1081 274.2 1081C182.7 1081 91.3 1081 45.7 1081L0 1081Z"
                fill="#e0e3f7"
                fill-opacity="0.7"
              ></path>
              <path
                d="M0 775L45.7 773.8C91.3 772.7 182.7 770.3 274.2 803.5C365.7 836.7 457.3 905.3 548.8 929.3C640.3 953.3 731.7 932.7 823 928.5C914.3 924.3 1005.7 936.7 1097 942.2C1188.3 947.7 1279.7 946.3 1371.2 932.8C1462.7 919.3 1554.3 893.7 1645.8 899.8C1737.3 906 1828.7 944 1874.3 963L1920 982L1920 1081L1874.3 1081C1828.7 1081 1737.3 1081 1645.8 1081C1554.3 1081 1462.7 1081 1371.2 1081C1279.7 1081 1188.3 1081 1097 1081C1005.7 1081 914.3 1081 823 1081C731.7 1081 640.3 1081 548.8 1081C457.3 1081 365.7 1081 274.2 1081C182.7 1081 91.3 1081 45.7 1081L0 1081Z"
                fill="#e7efff"
                fill-opacity="1"
              ></path>
            </svg>